<?xml version="1.0" encoding="UTF-8" standalone="no"?>
<svg
   xmlns:dc="http://purl.org/dc/elements/1.1/"
   xmlns:cc="http://creativecommons.org/ns#"
   xmlns:rdf="http://www.w3.org/1999/02/22-rdf-syntax-ns#"
   xmlns:svg="http://www.w3.org/2000/svg"
   xmlns="http://www.w3.org/2000/svg"
   xmlns:xlink="http://www.w3.org/1999/xlink"
   id="svg6037"
   version="1.1"
   viewBox="0 0 133.61458 133.61459"
   height="505"
   width="505">
  <defs
     id="defs6031" />
  <metadata
     id="metadata6034">
    <rdf:RDF>
      <cc:Work
         rdf:about="">
        <dc:format>image/svg+xml</dc:format>
        <dc:type
           rdf:resource="http://purl.org/dc/dcmitype/StillImage" />
        <dc:title></dc:title>
      </cc:Work>
    </rdf:RDF>
  </metadata>
  <g
     transform="translate(0,-163.3854)"
     id="layer1">
    <g
       id="g5486"
       transform="matrix(1.0009784,0,0,1.0009803,-43.646949,124.08584)">
      <rect
         y="73.238091"
         x="82.776787"
         height="69.16964"
         width="57.074402"
         id="rect5452"
         style="opacity:1;fill:none;fill-opacity:1;fill-rule:evenodd;stroke:#ffffff;stroke-width:4;stroke-miterlimit:4;stroke-dasharray:none;stroke-dashoffset:0;stroke-opacity:0" />
      <path
         d="M 110.31836,40.091797 A 66.081085,66.081085 0 0 0 44.238281,106.17188 66.081085,66.081085 0 0 0 110.31836,172.25391 66.081085,66.081085 0 0 0 176.40039,106.17188 66.081085,66.081085 0 0 0 110.31836,40.091797 Z"
         id="path5454"
         style="opacity:1;fill:#ffc559;fill-opacity:1;fill-rule:evenodd;stroke:none;stroke-width:0.12950274;stroke-miterlimit:4;stroke-dasharray:1.03602185, 1.03602185;stroke-dashoffset:0;stroke-opacity:1"
         xlink:href="#path4491"
         transform="translate(0.310025)" />
      <g
         transform="rotate(-1.373975,110.04793,105.79322)"
         id="g5474">
        <g
           id="g5460">
          <path
             style="opacity:1;fill:#b47300;fill-opacity:0.31372549;fill-rule:evenodd;stroke:none;stroke-width:0.48945919;stroke-miterlimit:4;stroke-dasharray:3.91567313, 3.91567313;stroke-dashoffset:0;stroke-opacity:1"
             d="m 358.09961,277.02148 -52.02344,7.07227 -4.04101,232.83984 151.45117,131.28125 A 249.75528,249.75528 0 0 0 667.88281,401.2793 249.75528,249.75528 0 0 0 667.68164,397.26953 L 530.33008,278.53711 490.93359,295.20508 Z"
             id="path5456"
             transform="matrix(0.26450726,0.0063442,-0.0063442,0.26450726,2.5683598,-2.6083219)" />
          <path
             id="path5458"
             d="m 81.598223,75.441629 c 0,0 7.097212,-4.20061 23.647187,-0.267269 22.8869,5.439403 33.73582,0.279667 33.73582,0.279667 l -0.13363,59.794293 c 0,0 -13.64976,6.57715 -35.94277,-0.26727 -10.606001,-3.25627 -21.777158,0.0645 -21.777158,0.0645 z"
             style="opacity:1;fill:none;fill-opacity:1;fill-rule:evenodd;stroke:#ffffff;stroke-width:3.67467332;stroke-miterlimit:4;stroke-dasharray:none;stroke-dashoffset:0;stroke-opacity:1" />
        </g>
        <path
           style="fill:none;fill-rule:evenodd;stroke:#ffffff;stroke-width:2.60893393;stroke-linecap:butt;stroke-linejoin:miter;stroke-miterlimit:4;stroke-dasharray:none;stroke-opacity:1"
           d="m 95.69297,100.90544 14.75971,-9.293611 15.15002,13.061201"
           id="path5462" />
        <path
           style="fill:none;fill-rule:evenodd;stroke:#ffffff;stroke-width:1.56536031;stroke-linecap:butt;stroke-linejoin:miter;stroke-miterlimit:4;stroke-dasharray:none;stroke-opacity:1"
           d="m 99.432901,116.26016 0.504147,-14.68542 10.396072,-6.575091 11.04774,9.618311 -0.29155,14.68903 -5.6514,-0.87393 0.0182,-7.49839 c 0,0 -0.99151,-3.09351 -4.40585,-3.78176 -4.35272,-0.8774 -5.27293,2.17349 -5.27293,2.17349 l -0.10343,7.9457 z"
           id="path5464" />
        <rect
           style="opacity:1;fill:#ffffff;fill-opacity:1;fill-rule:evenodd;stroke:none;stroke-width:1.69159281;stroke-miterlimit:4;stroke-dasharray:none;stroke-dashoffset:0;stroke-opacity:1"
           id="rect5466"
           width="11.698811"
           height="4.9743338"
           x="84.749184"
           y="76.344574"
           transform="matrix(0.99867346,0.05149102,0.06190942,0.99808177,0,0)" />
        <path
           style="fill:none;fill-rule:evenodd;stroke:#ffffff;stroke-width:0.86964458;stroke-linecap:butt;stroke-linejoin:miter;stroke-miterlimit:4;stroke-dasharray:none;stroke-opacity:1"
           d="m 95.137654,85.720304 0.225269,3.64569 5.603217,5.020994"
           id="path5468" />
        <rect
           y="123.31316"
           x="113.00116"
           height="3.9077034"
           width="12.079449"
           id="rect5470"
           style="opacity:1;fill:#ffffff;fill-opacity:1;fill-rule:evenodd;stroke:none;stroke-width:1.68800557;stroke-miterlimit:4;stroke-dasharray:none;stroke-dashoffset:0;stroke-opacity:1"
           transform="matrix(0.99999094,0.00425594,0.06209091,0.9980705,0,0)"
           ry="0" />
        <path
           id="path5472"
           d="m 111.24047,116.18894 3.15377,7.70507 7.03975,1.4575"
           style="fill:none;fill-rule:evenodd;stroke:#ffffff;stroke-width:0.86964458;stroke-linecap:butt;stroke-linejoin:miter;stroke-miterlimit:4;stroke-dasharray:none;stroke-opacity:1" />
      </g>
      <path
         id="path5476"
         d="M 45.468037,98.055538 126.92431,169.75598"
         style="opacity:0.35;fill:none;fill-rule:evenodd;stroke:#ffffff;stroke-width:0.69999999;stroke-linecap:butt;stroke-linejoin:miter;stroke-miterlimit:4;stroke-dasharray:16.79999956, 16.79999956;stroke-dashoffset:0;stroke-opacity:1" />
      <path
         id="path5478"
         d="M 88.87911,45.294272 47.161083,89.002141"
         style="opacity:0.35;fill:none;fill-rule:evenodd;stroke:#ffffff;stroke-width:0.69999999;stroke-linecap:butt;stroke-linejoin:miter;stroke-miterlimit:4;stroke-dasharray:16.80000028, 16.80000028;stroke-dashoffset:0;stroke-opacity:1" />
      <path
         style="opacity:0.35;fill:none;fill-rule:evenodd;stroke:#ffffff;stroke-width:0.69999999;stroke-linecap:butt;stroke-linejoin:miter;stroke-miterlimit:4;stroke-dasharray:16.79999974, 16.79999974;stroke-dashoffset:0;stroke-opacity:1"
         d="M 95.682559,41.490301 176.39782,111.78225"
         id="path5480" />
      <path
         style="opacity:0.35;fill:none;fill-rule:evenodd;stroke:#ffffff;stroke-width:0.69999999;stroke-linecap:butt;stroke-linejoin:miter;stroke-miterlimit:4;stroke-dasharray:16.8000001, 16.8000001;stroke-dashoffset:0;stroke-opacity:1"
         d="m 174.13809,114.24981 -52.14154,56.80407"
         id="path5482" />
      <path
         id="path5484"
         d="M 147.14387,58.925018 57.584594,155.28498"
         style="opacity:0.35;fill:none;fill-rule:evenodd;stroke:#ffffff;stroke-width:0.69999999;stroke-linecap:butt;stroke-linejoin:miter;stroke-miterlimit:4;stroke-dasharray:16.8000001, 16.8000001;stroke-dashoffset:0;stroke-opacity:1" />
    </g>
  </g>
</svg>
