<?xml version="1.0" encoding="UTF-8" standalone="no"?>
<svg
   xmlns:dc="http://purl.org/dc/elements/1.1/"
   xmlns:cc="http://creativecommons.org/ns#"
   xmlns:rdf="http://www.w3.org/1999/02/22-rdf-syntax-ns#"
   xmlns:svg="http://www.w3.org/2000/svg"
   xmlns="http://www.w3.org/2000/svg"
   id="svg5519"
   version="1.1"
   viewBox="0 0 132.29166 132.29167"
   height="500"
   width="500">
  <defs
     id="defs5513" />
  <metadata
     id="metadata5516">
    <rdf:RDF>
      <cc:Work
         rdf:about="">
        <dc:format>image/svg+xml</dc:format>
        <dc:type
           rdf:resource="http://purl.org/dc/dcmitype/StillImage" />
        <dc:title></dc:title>
      </cc:Work>
    </rdf:RDF>
  </metadata>
  <g
     transform="translate(0,-164.70832)"
     id="layer1">
    <g
       id="g6323"
       transform="translate(144.2076,143.3759)">
      <path
         style="opacity:1;fill:#08708f;fill-opacity:1;fill-rule:evenodd;stroke:none;stroke-width:3.5;stroke-miterlimit:4;stroke-dasharray:none;stroke-dashoffset:0;stroke-opacity:1"
         id="path6245"
         d="m -12.561661,87.327057 a 65.61467,65.881943 0 0 1 -51.831505,64.411983 65.61467,65.881943 0 0 1 -73.607194,-37.35093 65.61467,65.881943 0 0 1 20.90733,-80.104028 65.61467,65.881943 0 0 1 82.390864,3.697269" />
      <path
         style="opacity:1;fill:#08708f;fill-opacity:1;fill-rule:evenodd;stroke:none;stroke-width:5;stroke-miterlimit:4;stroke-dasharray:none;stroke-dashoffset:0;stroke-opacity:1"
         d="m -87.49221,152.66431 c -19.03273,-3.03477 -34.85593,-13.00288 -45.2298,-28.49333 -21.98598,-32.829865 -10.75806,-76.908818 24.25767,-95.231664 25.343727,-13.261727 56.652687,-8.446647 76.93069,11.831355 27.6371345,27.637136 25.3561655,72.829879 -4.931773,97.713029 -8.155313,6.70002 -18.335963,11.46588 -29.150066,13.646 -5.328595,1.07425 -16.743021,1.35318 -21.876721,0.53461 z m 35.630141,-30.79924 11.43967,-5.3e-4 -0.100383,-10.67782 -0.10038,-10.67783 -8.812334,-0.18899 -8.812329,-0.18899 7.57211,-4.346727 c 4.164664,-2.390698 7.577426,-4.449804 7.583911,-4.575791 0.01413,-0.274786 -10.130507,-17.771112 -10.577369,-18.242618 -0.17244,-0.181949 -3.627345,1.566804 -7.734663,3.915015 -4.082661,2.334117 -7.50248,4.164386 -7.599595,4.067273 -0.09712,-0.09712 1.778841,-3.550624 4.168793,-7.674462 2.389955,-4.123838 4.307004,-7.536251 4.260112,-7.58314 -0.08888,-0.08889 -16.980431,-9.77627 -18.118174,-10.390862 -0.555032,-0.299821 -1.313569,0.767225 -5.196557,7.310067 l -4.546663,7.661126 -5.3e-4,-8.982733 -5.29e-4,-8.982729 -10.866813,0.10029 -10.866818,0.100291 -0.0968,30.123386 c -0.0963,29.976704 -0.0928,30.133924 0.71249,32.286284 1.4088,3.76537 4.27846,6.25093 8.07772,6.99656 0.83154,0.16319 9.761232,0.21944 19.843746,0.12498 10.082514,-0.0944 23.479696,-0.17192 29.771509,-0.17215 z"
         id="path6209" />
      <path
         id="path6279"
         d="m -80.464112,59.223428 -7.983737,-6.079606 -20.494101,0.535916 0.39976,62.334102 1.84232,3.63841 38.067884,32.86772 c 4.55533,-1.11403 18.165789,-1.62448 38.384684,-19.67407 11.143582,-13.3167 15.1,-26.84004 15.1,-26.84004 L -60.848244,66.42528 -78.826418,55.954314 Z"
         style="opacity:1;fill:#076278;fill-opacity:0.73333333;fill-rule:evenodd;stroke:none;stroke-width:0.12962957;stroke-miterlimit:4;stroke-dasharray:1.03703647, 1.03703647;stroke-dashoffset:0;stroke-opacity:1" />
      <g
         id="g6203"
         transform="matrix(0.53275057,0,0,0.53275057,-127.2376,46.40443)">
        <rect
           y="68.9077"
           x="82.814186"
           height="69.23745"
           width="57.130245"
           id="rect4997"
           style="opacity:1;fill:none;fill-opacity:1;fill-rule:evenodd;stroke:#ffffff;stroke-width:4.00391722;stroke-miterlimit:4;stroke-dasharray:none;stroke-dashoffset:0;stroke-opacity:0" />
        <path
           id="path6111"
           d="m 34.584822,13.536755 37.041666,-0.09449 c 0,0 -0.04903,19.088316 -0.07354,28.632474 -0.06998,27.245522 -0.20994,81.736571 -0.20994,81.736571 0,0 -1.542521,16.14878 -18.237351,16.34747 C 35.866632,140.36394 34.30134,123.24435 34.30134,123.24435 l 0.210476,-81.453574 z"
           style="fill:none;fill-rule:evenodd;stroke:#ffffff;stroke-width:3.5;stroke-linecap:butt;stroke-linejoin:miter;stroke-miterlimit:4;stroke-dasharray:none;stroke-opacity:1" />
        <path
           id="path6115"
           d="m 34.490326,42.073957 36.85268,-0.09449"
           style="fill:none;fill-rule:evenodd;stroke:#ffffff;stroke-width:3.5;stroke-linecap:butt;stroke-linejoin:miter;stroke-miterlimit:4;stroke-dasharray:none;stroke-opacity:1" />
        <path
           style="fill:none;fill-rule:evenodd;stroke:#ffffff;stroke-width:3.5;stroke-linecap:butt;stroke-linejoin:miter;stroke-miterlimit:4;stroke-dasharray:none;stroke-opacity:1"
           d="m 34.206844,73.823956 36.85268,-0.09449"
           id="path6117" />
        <path
           id="path6130"
           d="m 34.301338,103.4006 36.85268,-0.0945"
           style="fill:none;fill-rule:evenodd;stroke:#ffffff;stroke-width:3.5;stroke-linecap:butt;stroke-linejoin:miter;stroke-miterlimit:4;stroke-dasharray:none;stroke-opacity:1" />
        <ellipse
           ry="2.7875745"
           rx="2.5985863"
           cx="53.247395"
           cy="121.5907"
           id="path6132"
           style="opacity:1;fill:none;fill-opacity:1;fill-rule:evenodd;stroke:#ffffff;stroke-width:3.5;stroke-miterlimit:4;stroke-dasharray:none;stroke-dashoffset:0;stroke-opacity:1" />
        <path
           id="path6134"
           d="M 71.154017,52.562796 91.186756,18.828421 123.22024,37.065773 71.24851,126.64613 Z"
           style="fill:none;fill-rule:evenodd;stroke:#ffffff;stroke-width:3.5;stroke-linecap:butt;stroke-linejoin:miter;stroke-miterlimit:4;stroke-dasharray:none;stroke-opacity:1" />
        <path
           id="path6136"
           d="M 77.201635,43.680355 108.38467,61.539731"
           style="fill:none;fill-rule:evenodd;stroke:#ffffff;stroke-width:3.5;stroke-linecap:butt;stroke-linejoin:miter;stroke-miterlimit:4;stroke-dasharray:none;stroke-opacity:1" />
        <path
           style="fill:none;fill-rule:evenodd;stroke:#ffffff;stroke-width:3.5;stroke-linecap:butt;stroke-linejoin:miter;stroke-miterlimit:4;stroke-dasharray:none;stroke-opacity:1"
           d="M 71.531992,77.036754 93.171128,89.226486"
           id="path6138" />
        <path
           id="path6140"
           d="M 137.67782,51.901337 103.84896,71.178123 67.657739,134.86712 156.10416,83.556844 Z"
           style="fill:none;fill-rule:evenodd;stroke:#ffffff;stroke-width:3.5;stroke-linecap:butt;stroke-linejoin:miter;stroke-miterlimit:4;stroke-dasharray:none;stroke-opacity:1" />
        <path
           id="path6142"
           d="m 113.01488,66.264434 18.61533,31.750002"
           style="fill:none;fill-rule:evenodd;stroke:#ffffff;stroke-width:3.5;stroke-linecap:butt;stroke-linejoin:miter;stroke-miterlimit:4;stroke-dasharray:none;stroke-opacity:1" />
        <path
           style="fill:none;fill-rule:evenodd;stroke:#ffffff;stroke-width:3.5;stroke-linecap:butt;stroke-linejoin:miter;stroke-miterlimit:4;stroke-dasharray:none;stroke-opacity:1"
           d="M 92.226189,93.289732 104.13244,114.07843"
           id="path6144" />
        <path
           id="path6146"
           d="M 161.20684,103.58958 122.84226,103.21161 58.586309,140.15878 161.49033,139.8753 Z"
           style="fill:none;fill-rule:evenodd;stroke:#ffffff;stroke-width:3.5;stroke-linecap:butt;stroke-linejoin:miter;stroke-miterlimit:4;stroke-dasharray:none;stroke-opacity:1" />
        <path
           id="path6148"
           d="m 132.95312,103.49509 -0.0945,35.90774"
           style="fill:none;fill-rule:evenodd;stroke:#ffffff;stroke-width:3.5;stroke-linecap:butt;stroke-linejoin:miter;stroke-miterlimit:4;stroke-dasharray:none;stroke-opacity:1" />
        <path
           style="fill:none;fill-rule:evenodd;stroke:#ffffff;stroke-width:3.5;stroke-linecap:butt;stroke-linejoin:miter;stroke-miterlimit:4;stroke-dasharray:none;stroke-opacity:1"
           d="m 101.10863,115.49583 -0.0945,25.32441"
           id="path6150" />
      </g>
      <path
         id="path6269"
         d="M -96.813804,24.198119 -16.019571,94.55898"
         style="opacity:0.2;fill:none;fill-rule:evenodd;stroke:#ffffff;stroke-width:0.70068556;stroke-linecap:butt;stroke-linejoin:miter;stroke-miterlimit:4;stroke-dasharray:16.81645282, 16.81645282;stroke-dashoffset:0;stroke-opacity:1" />
      <path
         style="opacity:0.2;fill:none;fill-rule:evenodd;stroke:#ffffff;stroke-width:0.70068556;stroke-linecap:butt;stroke-linejoin:miter;stroke-miterlimit:4;stroke-dasharray:16.81645264, 16.81645264;stroke-dashoffset:0;stroke-opacity:1"
         d="m -142.95451,76.858502 81.535977,71.770728"
         id="path6271" />
      <path
         id="path6273"
         d="M -16.55411,91.619015 -68.746666,148.47877"
         style="opacity:0.2;fill:none;fill-rule:evenodd;stroke:#ffffff;stroke-width:0.70068556;stroke-linecap:butt;stroke-linejoin:miter;stroke-miterlimit:4;stroke-dasharray:16.81645318, 16.81645318;stroke-dashoffset:0;stroke-opacity:1" />
      <path
         style="opacity:0.2;fill:none;fill-rule:evenodd;stroke:#ffffff;stroke-width:0.70068556;stroke-linecap:butt;stroke-linejoin:miter;stroke-miterlimit:4;stroke-dasharray:16.81645318, 16.81645318;stroke-dashoffset:0;stroke-opacity:1"
         d="m -42.782807,44.63863 -89.646913,96.45442"
         id="path6275" />
      <path
         style="opacity:0.2;fill:none;fill-rule:evenodd;stroke:#ffffff;stroke-width:0.70068556;stroke-linecap:butt;stroke-linejoin:miter;stroke-miterlimit:4;stroke-dasharray:16.81645336, 16.81645336;stroke-dashoffset:0;stroke-opacity:1"
         d="m -101.63911,30.72725 -41.75884,43.75072"
         id="path6277" />
    </g>
  </g>
</svg>
