<?xml version="1.0" encoding="UTF-8" standalone="no"?>
<svg
   xmlns:dc="http://purl.org/dc/elements/1.1/"
   xmlns:cc="http://creativecommons.org/ns#"
   xmlns:rdf="http://www.w3.org/1999/02/22-rdf-syntax-ns#"
   xmlns:svg="http://www.w3.org/2000/svg"
   xmlns="http://www.w3.org/2000/svg"
   xmlns:xlink="http://www.w3.org/1999/xlink"
   id="svg4870"
   version="1.1"
   viewBox="0 0 133.61458 133.61459"
   height="505"
   width="505">
  <defs
     id="defs4864" />
  <metadata
     id="metadata4867">
    <rdf:RDF>
      <cc:Work
         rdf:about="">
        <dc:format>image/svg+xml</dc:format>
        <dc:type
           rdf:resource="http://purl.org/dc/dcmitype/StillImage" />
        <dc:title></dc:title>
      </cc:Work>
    </rdf:RDF>
  </metadata>
  <g
     transform="translate(0,-163.3854)"
     id="layer1">
    <g
       id="g5617"
       transform="translate(331.69795,7.9022019)">
      <rect
         style="opacity:1;fill:none;fill-opacity:1;fill-rule:evenodd;stroke:#ffffff;stroke-width:4.00391722;stroke-miterlimit:4;stroke-dasharray:none;stroke-dashoffset:0;stroke-opacity:0"
         id="rect5538"
         width="57.130245"
         height="69.23745"
         x="-292.89413"
         y="189.17972" />
      <path
         transform="matrix(1.0009784,0,0,1.0009803,-375.44159,115.86983)"
         xlink:href="#path4491"
         style="opacity:1;fill:#b9bda8;fill-opacity:1;fill-rule:evenodd;stroke:none;stroke-width:0.12950274;stroke-miterlimit:4;stroke-dasharray:1.03602185, 1.03602185;stroke-dashoffset:0;stroke-opacity:1"
         id="path5540"
         d="M 110.31836,40.091797 A 66.081085,66.081085 0 0 0 44.238281,106.17188 66.081085,66.081085 0 0 0 110.31836,172.25391 66.081085,66.081085 0 0 0 176.40039,106.17188 66.081085,66.081085 0 0 0 110.31836,40.091797 Z" />
      <path
         id="path5542"
         d="m -280.91203,189.23695 -13.778,1.87304 -1.07023,61.66593 40.11066,34.76888 a 66.145738,66.145863 0 0 0 56.78123,-65.39908 66.145738,66.145863 0 0 0 -0.0533,-1.06196 l -36.37648,-31.44541 -10.43386,4.41439 z"
         style="opacity:1;fill:#a1a78b;fill-opacity:0.94117647;fill-rule:evenodd;stroke:none;stroke-width:0.12962957;stroke-miterlimit:4;stroke-dasharray:1.03703647, 1.03703647;stroke-dashoffset:0;stroke-opacity:1" />
      <path
         style="opacity:1;fill:none;fill-opacity:1;fill-rule:evenodd;stroke:#ffffff;stroke-width:3.67827201;stroke-miterlimit:4;stroke-dasharray:none;stroke-dashoffset:0;stroke-opacity:1"
         d="m -294.79416,192.07698 c 0,0 7.00129,-4.37386 23.6571,-0.83502 23.03326,4.89385 33.76583,-0.52985 33.76583,-0.52985 l 1.30144,59.8389 c 0,0 -13.50133,6.90933 -35.97401,0.59523 -10.69148,-3.00396 -21.79065,0.58724 -21.79065,0.58724 z"
         id="path5544" />
      <path
         style="fill:none;fill-rule:evenodd;stroke:#ffffff;stroke-width:2.61148906;stroke-linecap:butt;stroke-linejoin:miter;stroke-miterlimit:4;stroke-dasharray:none;stroke-opacity:1"
         d="m -280.07851,217.22013 14.54685,-9.6543 15.47397,12.70662"
         id="path5546" />
      <path
         style="fill:none;fill-rule:evenodd;stroke:#ffffff;stroke-width:1.56689334;stroke-linecap:butt;stroke-linejoin:miter;stroke-miterlimit:4;stroke-dasharray:none;stroke-opacity:1"
         d="m -275.96746,232.49572 0.15203,-14.70769 10.24544,-6.82917 11.28622,9.35981 0.0608,14.7062 -5.67628,-0.73889 -0.16176,-7.50402 c 0,0 -1.06644,-3.07185 -4.49966,-3.67863 -4.37679,-0.77354 -5.22441,2.30155 -5.22441,2.30155 l 0.0872,7.95369 z"
         id="path5548" />
      <rect
         style="opacity:1;fill:#ffffff;fill-opacity:1;fill-rule:evenodd;stroke:none;stroke-width:1.69324946;stroke-miterlimit:4;stroke-dasharray:none;stroke-dashoffset:0;stroke-opacity:1"
         id="rect5550"
         width="11.710257"
         height="4.9792099"
         x="-304.71011"
         y="206.16382"
         transform="matrix(0.99962098,0.02752998,0.08582355,0.99631035,0,0)" />
      <path
         style="fill:none;fill-rule:evenodd;stroke:#ffffff;stroke-width:0.87049627;stroke-linecap:butt;stroke-linejoin:miter;stroke-miterlimit:4;stroke-dasharray:none;stroke-opacity:1"
         d="m -280.99867,202.03781 0.31292,3.64281 5.7276,4.88998"
         id="path5552" />
      <rect
         y="234.73729"
         x="-274.79578"
         height="3.9115341"
         width="12.091268"
         id="rect5554"
         style="opacity:1;fill:#ffffff;fill-opacity:1;fill-rule:evenodd;stroke:none;stroke-width:1.68965876;stroke-miterlimit:4;stroke-dasharray:none;stroke-dashoffset:0;stroke-opacity:1"
         transform="matrix(0.99980548,-0.0197232,0.08600472,0.99629473,0,0)"
         ry="0" />
      <path
         id="path5556"
         d="m -264.15344,232.14105 3.34088,7.63471 7.07959,1.28955"
         style="fill:none;fill-rule:evenodd;stroke:#ffffff;stroke-width:0.87049627;stroke-linecap:butt;stroke-linejoin:miter;stroke-miterlimit:4;stroke-dasharray:none;stroke-opacity:1" />
      <path
         style="opacity:0.35;fill:none;fill-rule:evenodd;stroke:#ffffff;stroke-width:0.70068556;stroke-linecap:butt;stroke-linejoin:miter;stroke-miterlimit:4;stroke-dasharray:16.81645264, 16.81645264;stroke-dashoffset:0;stroke-opacity:1"
         d="m -330.2394,214.02149 81.53597,71.77073"
         id="path5558" />
      <path
         style="opacity:0.35;fill:none;fill-rule:evenodd;stroke:#ffffff;stroke-width:0.70068556;stroke-linecap:butt;stroke-linejoin:miter;stroke-miterlimit:4;stroke-dasharray:16.81645336, 16.81645336;stroke-dashoffset:0;stroke-opacity:1"
         d="m -286.78585,161.2085 -41.75884,43.75072"
         id="path5560" />
      <path
         id="path5562"
         d="m -279.97574,157.4008 80.79423,70.36086"
         style="opacity:0.35;fill:none;fill-rule:evenodd;stroke:#ffffff;stroke-width:0.70068556;stroke-linecap:butt;stroke-linejoin:miter;stroke-miterlimit:4;stroke-dasharray:16.81645282, 16.81645282;stroke-dashoffset:0;stroke-opacity:1" />
      <path
         id="path5564"
         d="m -201.44345,230.23164 -52.19256,56.85975"
         style="opacity:0.35;fill:none;fill-rule:evenodd;stroke:#ffffff;stroke-width:0.70068556;stroke-linecap:butt;stroke-linejoin:miter;stroke-miterlimit:4;stroke-dasharray:16.81645318, 16.81645318;stroke-dashoffset:0;stroke-opacity:1" />
      <path
         style="opacity:0.35;fill:none;fill-rule:evenodd;stroke:#ffffff;stroke-width:0.70068556;stroke-linecap:butt;stroke-linejoin:miter;stroke-miterlimit:4;stroke-dasharray:16.81645318, 16.81645318;stroke-dashoffset:0;stroke-opacity:1"
         d="m -228.46408,174.85261 -89.64691,96.45443"
         id="path5566" />
    </g>
  </g>
</svg>
